# xmcd
#
# Track frame offsets:
# 150
# 12810
# 24462
# 35572
# 46737
# 57135
# 67505
# 78907
# 91610
# 102442
# 113332
# 125677
# 140592
#
# Disc length: 2079 seconds
#
#
# Revision: 0
# Processed by: cddbd v1.5.1PL0 Copyright (c) Steve Scherf et al.
# Submitted via: FreeRIP 2.20 
#
DISCID=92081d0d
DTITLE=Brook Benton - Endlessly vol.2
DYEAR=1900
DGENRE=Rhythmic Soul
TTITLE0=The Boll Weevil Song
TTITLE1=Kiddio
TTITLE2=A Rockin' Good Way
TTITLE3=It's Just A House Whithout You
TTITLE4=The Some One
TTITLE5=Fools Rush In
TTITLE6=Rock and Roll That Rhythm
TTITLE7=Partners For Life
TTITLE8=Frankie And Johnny
TTITLE9=Revenge
TTITLE10=Anything For You
TTITLE11=Child
TTITLE12=I Believe
EXTD=
EXTT0=
EXTT1=
EXTT2=
EXTT3=
EXTT4=
EXTT5=
EXTT6=
EXTT7=
EXTT8=
EXTT9=
EXTT10=
EXTT11=
EXTT12=
PLAYORDER=
